<?xml version="1.0" encoding="UTF-8" standalone="no"?>
<!DOCTYPE svg PUBLIC "-//W3C//DTD SVG 1.1//EN"
 "http://www.w3.org/Graphics/SVG/1.1/DTD/svg11.dtd">
<!-- Generated by graphviz version 2.40.1 (20161225.0304)
 -->
<!-- Title: sample Pages: 1 -->
<svg width="602pt" height="249pt"
 viewBox="0.00 0.00 601.50 249.00" xmlns="http://www.w3.org/2000/svg" xmlns:xlink="http://www.w3.org/1999/xlink">
<g id="graph0" class="graph" transform="scale(1 1) rotate(0) translate(4 245)">
<title>sample</title>
<polygon fill="#ffffff" stroke="transparent" points="-4,4 -4,-245 597.5,-245 597.5,4 -4,4"/>
<!-- goose_db_version -->
<g id="node1" class="node">
<title>goose_db_version</title>
<polygon fill="#efefef" stroke="transparent" points="43,-162.5 43,-197.5 301,-197.5 301,-162.5 43,-162.5"/>
<polygon fill="none" stroke="#000000" points="43,-162.5 43,-197.5 301,-197.5 301,-162.5 43,-162.5"/>
<text text-anchor="start" x="49.8458" y="-175.3" font-family="Arial Bold" font-size="18.00" fill="#000000">goose_db_version</text>
<text text-anchor="start" x="196.9004" y="-175.3" font-family="Arial" font-size="14.00" fill="#000000"> </text>
<text text-anchor="start" x="200.791" y="-175.3" font-family="Arial" font-size="14.00" fill="#666666">[BASE TABLE]</text>
<polygon fill="none" stroke="#000000" points="43,-132.5 43,-162.5 301,-162.5 301,-132.5 43,-132.5"/>
<text text-anchor="start" x="50" y="-143.9" font-family="Arial" font-size="14.00" fill="#000000">id </text>
<text text-anchor="start" x="64.7798" y="-143.9" font-family="Arial" font-size="14.00" fill="#666666">[bigint unsigned]</text>
<polygon fill="none" stroke="#000000" points="43,-102.5 43,-132.5 301,-132.5 301,-102.5 43,-102.5"/>
<text text-anchor="start" x="50" y="-113.9" font-family="Arial" font-size="14.00" fill="#000000">version_id </text>
<text text-anchor="start" x="117.6774" y="-113.9" font-family="Arial" font-size="14.00" fill="#666666">[bigint]</text>
<polygon fill="none" stroke="#000000" points="43,-72.5 43,-102.5 301,-102.5 301,-72.5 43,-72.5"/>
<text text-anchor="start" x="50" y="-83.9" font-family="Arial" font-size="14.00" fill="#000000">is_applied </text>
<text text-anchor="start" x="116.906" y="-83.9" font-family="Arial" font-size="14.00" fill="#666666">[tinyint(1)]</text>
<polygon fill="none" stroke="#000000" points="43,-42.5 43,-72.5 301,-72.5 301,-42.5 43,-42.5"/>
<text text-anchor="start" x="50" y="-53.9" font-family="Arial" font-size="14.00" fill="#000000">tstamp </text>
<text text-anchor="start" x="95.8976" y="-53.9" font-family="Arial" font-size="14.00" fill="#666666">[timestamp]</text>
</g>
<!-- post -->
<g id="node2" class="node">
<title>post</title>
<polygon fill="#efefef" stroke="transparent" points="406,-147.5 406,-182.5 551,-182.5 551,-147.5 406,-147.5"/>
<polygon fill="none" stroke="#000000" points="406,-147.5 406,-182.5 551,-182.5 551,-147.5 406,-147.5"/>
<text text-anchor="start" x="412.8658" y="-160.3" font-family="Arial Bold" font-size="18.00" fill="#000000">post</text>
<text text-anchor="start" x="446.8804" y="-160.3" font-family="Arial" font-size="14.00" fill="#000000"> </text>
<text text-anchor="start" x="450.771" y="-160.3" font-family="Arial" font-size="14.00" fill="#666666">[BASE TABLE]</text>
<polygon fill="none" stroke="#000000" points="406,-117.5 406,-147.5 551,-147.5 551,-117.5 406,-117.5"/>
<text text-anchor="start" x="413" y="-128.9" font-family="Arial" font-size="14.00" fill="#000000">id </text>
<text text-anchor="start" x="427.7798" y="-128.9" font-family="Arial" font-size="14.00" fill="#666666">[int]</text>
<polygon fill="none" stroke="#000000" points="406,-87.5 406,-117.5 551,-117.5 551,-87.5 406,-87.5"/>
<text text-anchor="start" x="413" y="-98.9" font-family="Arial" font-size="14.00" fill="#000000">title </text>
<text text-anchor="start" x="438.6676" y="-98.9" font-family="Arial" font-size="14.00" fill="#666666">[text]</text>
<polygon fill="none" stroke="#000000" points="406,-57.5 406,-87.5 551,-87.5 551,-57.5 406,-57.5"/>
<text text-anchor="start" x="413" y="-68.9" font-family="Arial" font-size="14.00" fill="#000000">body </text>
<text text-anchor="start" x="447.2384" y="-68.9" font-family="Arial" font-size="14.00" fill="#666666">[text]</text>
</g>
</g>
</svg>
